<?xml version="1.0" encoding="UTF-8" standalone="no"?>
<svg
   width="226.44255"
   zoomAndPan="magnify"
   viewBox="0 0 169.83191 205.65625"
   height="274.20834"
   preserveAspectRatio="xMidYMid"
   version="1.0"
   id="svg356"
   xmlns="http://www.w3.org/2000/svg"
   xmlns:svg="http://www.w3.org/2000/svg">
  <defs
     id="defs46">
    <clipPath
       id="9e61385cb6">
      <path
         d="M 101.04688,84.675781 H 270.87891 V 290.33203 H 101.04688 Z m 0,0"
         clip-rule="nonzero"
         id="path1" />
    </clipPath>
    <clipPath
       id="de32071ce2">
      <path
         d="m 105.54688,84.675781 h 160.83203 c 1.1914,0 2.33593,0.476563 3.17968,1.320313 0.84375,0.84375 1.32032,1.988281 1.32032,3.179687 V 285.82422 c 0,1.1914 -0.47657,2.33594 -1.32032,3.17969 -0.84375,0.84375 -1.98828,1.32031 -3.17968,1.32031 H 105.54688 c -1.19532,0 -2.33985,-0.47656 -3.1836,-1.32031 -0.84375,-0.84375 -1.3164,-1.98829 -1.3164,-3.17969 V 89.175781 c 0,-2.484375 2.01562,-4.5 4.5,-4.5 z m 0,0"
         clip-rule="nonzero"
         id="path2" />
    </clipPath>
    <clipPath
       id="2bf55dcc38">
      <path
         d="M 115.84766,143.30859 H 256 V 264.85156 H 115.84766 Z m 0,0"
         clip-rule="nonzero"
         id="path3" />
    </clipPath>
    <clipPath
       id="3eee7c2c87">
      <path
         d="m 121.09766,143.30859 h 129.73046 c 2.90235,0 5.25,2.35157 5.25,5.25 v 111.04297 c 0,2.89844 -2.34765,5.25 -5.25,5.25 H 121.09766 c -2.90235,0 -5.25,-2.35156 -5.25,-5.25 V 148.55859 c 0,-2.89843 2.34765,-5.25 5.25,-5.25 z m 0,0"
         clip-rule="nonzero"
         id="path4" />
    </clipPath>
    <clipPath
       id="7734e3004f">
      <path
         d="m 115.84766,143.30859 h 140.25 v 121.5 h -140.25 z m 0,0"
         clip-rule="nonzero"
         id="path5" />
    </clipPath>
    <clipPath
       id="bf39e28153">
      <path
         d="m 121.09766,143.30859 h 129.72265 c 2.90235,0 5.25,2.35157 5.25,5.25 v 111.03516 c 0,2.89844 -2.34765,5.25 -5.25,5.25 H 121.09766 c -2.89844,0 -5.25,-2.35156 -5.25,-5.25 V 148.55859 c 0,-2.89843 2.35156,-5.25 5.25,-5.25 z m 0,0"
         clip-rule="nonzero"
         id="path6" />
    </clipPath>
    <clipPath
       id="b8535e656f">
      <path
         d="m 171.83594,269.07031 h 28.26562 v 14.39063 h -28.26562 z m 0,0"
         clip-rule="nonzero"
         id="path7" />
    </clipPath>
    <clipPath
       id="76905ecb8b">
      <path
         d="m 189.76562,281.89453 9.66797,-9.20312 c 0.6211,-0.59375 0.82032,-1.50391 0.5,-2.30079 -0.3164,-0.79687 -1.08984,-1.32031 -1.94922,-1.32031 h -24.04296 c -0.85938,0 -1.63282,0.52344 -1.94922,1.32031 -0.32032,0.79688 -0.1211,1.70704 0.5,2.30079 l 9.66797,9.20312 c 2.1289,2.02734 5.47656,2.02734 7.60546,0 z m 0,0"
         clip-rule="nonzero"
         id="path8" />
    </clipPath>
    <clipPath
       id="7af381faa1">
      <path
         d="m 171,269.07422 h 29.32031 V 284 H 171 Z m 0,0"
         clip-rule="nonzero"
         id="path9" />
    </clipPath>
    <clipPath
       id="a53c80bcc3">
      <path
         d="m 189.75781,281.89453 9.66406,-9.20312 c 0.625,-0.58985 0.82032,-1.50391 0.50391,-2.30079 -0.32031,-0.79687 -1.08984,-1.3164 -1.94922,-1.3164 H 173.9375 c -0.85938,0 -1.62891,0.51953 -1.94922,1.3164 -0.31641,0.79688 -0.11719,1.71094 0.50391,2.30079 l 9.66406,9.20312 c 2.12891,2.02344 5.47266,2.02344 7.60156,0 z m 0,0"
         clip-rule="nonzero"
         id="path10" />
    </clipPath>
    <clipPath
       id="b6a68f62be">
      <path
         d="m 241.28125,102.35547 h 29.59766 v 3.75 h -29.59766 z m 0,0"
         clip-rule="nonzero"
         id="path13" />
    </clipPath>
    <clipPath
       id="c146c1183d">
      <path
         d="m 241.28125,108.28906 h 29.59766 v 3.75 h -29.59766 z m 0,0"
         clip-rule="nonzero"
         id="path14" />
    </clipPath>
    <clipPath
       id="f6c6be663a">
      <path
         d="m 241.28125,114.28906 h 29.59766 v 3.75 h -29.59766 z m 0,0"
         clip-rule="nonzero"
         id="path15" />
    </clipPath>
    <clipPath
       id="ede43a1824">
      <path
         d="m 241.28125,120.28906 h 29.59766 v 3.75 h -29.59766 z m 0,0"
         clip-rule="nonzero"
         id="path16" />
    </clipPath>
    <clipPath
       id="6611961998">
      <path
         d="m 241.28125,126.28906 h 29.59766 v 3.75 h -29.59766 z m 0,0"
         clip-rule="nonzero"
         id="path17" />
    </clipPath>
    <clipPath
       id="fa6a52927e">
      <path
         d="m 101.04688,102.32031 h 29.59765 v 3.75 h -29.59765 z m 0,0"
         clip-rule="nonzero"
         id="path18" />
    </clipPath>
    <clipPath
       id="152ae4f385">
      <path
         d="m 101.04688,108.25781 h 29.59765 v 3.75 h -29.59765 z m 0,0"
         clip-rule="nonzero"
         id="path19" />
    </clipPath>
    <clipPath
       id="5f5f1978bf">
      <path
         d="m 101.04688,114.25781 h 29.59765 v 3.75 h -29.59765 z m 0,0"
         clip-rule="nonzero"
         id="path20" />
    </clipPath>
    <clipPath
       id="35d74b0178">
      <path
         d="m 101.04688,120.25781 h 29.59765 v 3.75 h -29.59765 z m 0,0"
         clip-rule="nonzero"
         id="path21" />
    </clipPath>
    <clipPath
       id="9f0d51beec">
      <path
         d="m 101.04688,126.25781 h 29.59765 v 3.75 h -29.59765 z m 0,0"
         clip-rule="nonzero"
         id="path22" />
    </clipPath>
    <clipPath
       id="c0af187d9b">
      <path
         d="m 115.84766,96.40625 h 140.29296 v 41.71484 H 115.84766 Z m 0,0"
         clip-rule="nonzero"
         id="path23" />
    </clipPath>
    <clipPath
       id="76691d0f84">
      <path
         d="m 134.59766,96.40625 h 102.73046 c 10.35547,0 18.75,8.39453 18.75,18.75 v 4.21484 c 0,10.35547 -8.39453,18.75 -18.75,18.75 H 134.59766 c -10.35547,0 -18.75,-8.39453 -18.75,-18.75 v -4.21484 c 0,-10.35547 8.39453,-18.75 18.75,-18.75 z m 0,0"
         clip-rule="nonzero"
         id="path24" />
    </clipPath>
    <clipPath
       id="aa55de0e83">
      <path
         d="m 115.85547,96.40625 h 140.24219 v 42 H 115.85547 Z m 0,0"
         clip-rule="nonzero"
         id="path25" />
    </clipPath>
    <clipPath
       id="04a5dd5eba">
      <path
         d="m 134.60156,96.40625 h 102.71485 c 10.35546,0 18.74609,8.39453 18.74609,18.74609 v 4.21485 c 0,10.35156 -8.39063,18.74609 -18.74609,18.74609 H 134.60156 c -10.35547,0 -18.74609,-8.39453 -18.74609,-18.74609 v -4.21485 c 0,-10.35156 8.39062,-18.74609 18.74609,-18.74609 z m 0,0"
         clip-rule="nonzero"
         id="path26" />
    </clipPath>
    <clipPath
       id="7196d010b5">
      <path
         d="M 115.84766,98.089844 H 256.19141 V 136.43359 H 115.84766 Z m 0,0"
         clip-rule="nonzero"
         id="path27" />
    </clipPath>
    <clipPath
       id="bcd9a2434c">
      <path
         d="m 134.59766,98.089844 h 102.73046 c 10.35547,0 18.75,8.394536 18.75,18.749996 v 0.84375 c 0,10.35547 -8.39453,18.75 -18.75,18.75 H 134.59766 c -10.35547,0 -18.75,-8.39453 -18.75,-18.75 v -0.84375 c 0,-10.35546 8.39453,-18.749996 18.75,-18.749996 z m 0,0"
         clip-rule="nonzero"
         id="path28" />
    </clipPath>
    <clipPath
       id="113bd8ff9f">
      <path
         d="m 115.84766,98.089844 h 140.25 v 38.249996 h -140.25 z m 0,0"
         clip-rule="nonzero"
         id="path29" />
    </clipPath>
    <clipPath
       id="75621f5e6e">
      <path
         d="m 134.59375,98.089844 h 102.73047 c 10.35547,0 18.75,8.394536 18.75,18.749996 v 0.84375 c 0,10.35547 -8.39453,18.75 -18.75,18.75 H 134.59375 c -10.35156,0 -18.74609,-8.39453 -18.74609,-18.75 v -0.84375 c 0,-10.35546 8.39453,-18.749996 18.74609,-18.749996 z m 0,0"
         clip-rule="nonzero"
         id="path30" />
    </clipPath>
    <clipPath
       id="cdab320cde">
      <path
         d="m 101.02344,168.83594 h 6.2539 v 121.49218 h -6.2539 z m 0,0"
         clip-rule="nonzero"
         id="path31" />
    </clipPath>
    <clipPath
       id="1d223ef5fc">
      <path
         d="m 102.54688,168.85937 h 3.23046 c 0.39844,0 0.78125,0.15625 1.0625,0.4375 0.28125,0.28125 0.4375,0.66407 0.4375,1.0625 v 118.46485 c 0,0.39453 -0.15625,0.77734 -0.4375,1.05859 -0.28125,0.28125 -0.66406,0.44141 -1.0625,0.44141 h -3.23046 c -0.39844,0 -0.78125,-0.16016 -1.0625,-0.44141 -0.28125,-0.28125 -0.4375,-0.66406 -0.4375,-1.05859 V 170.35937 c 0,-0.39843 0.15625,-0.78125 0.4375,-1.0625 0.28125,-0.28125 0.66406,-0.4375 1.0625,-0.4375 z m 0,0"
         clip-rule="nonzero"
         id="path32" />
    </clipPath>
    <clipPath
       id="89fb752987">
      <path
         d="m 101.04688,168.94141 h 6 v 121.41796 h -6 z m 0,0"
         clip-rule="nonzero"
         id="path33" />
    </clipPath>
    <clipPath
       id="c99eb4f79e">
      <path
         d="m 102.54297,168.94141 h 3.23047 c 0.39453,0 0.77734,0.15625 1.05859,0.4375 0.28125,0.28125 0.4375,0.66406 0.4375,1.05859 v 118.29297 c 0,0.39844 -0.15625,0.78125 -0.4375,1.05859 -0.28125,0.28125 -0.66406,0.44141 -1.05859,0.44141 h -3.23047 c -0.39453,0 -0.77734,-0.16016 -1.05859,-0.44141 -0.28125,-0.27734 -0.4375,-0.66015 -0.4375,-1.05859 V 170.4375 c 0,-0.39453 0.15625,-0.77734 0.4375,-1.05859 0.28125,-0.28125 0.66406,-0.4375 1.05859,-0.4375 z m 0,0"
         clip-rule="nonzero"
         id="path34" />
    </clipPath>
    <clipPath
       id="e45f990d50">
      <path
         d="m 264.62109,168.83594 h 6.25782 v 121.49218 h -6.25782 z m 0,0"
         clip-rule="nonzero"
         id="path35" />
    </clipPath>
    <clipPath
       id="d98425e87f">
      <path
         d="m 266.14844,168.85937 h 3.23047 c 0.39843,0 0.77734,0.15625 1.05859,0.4375 0.28125,0.28125 0.44141,0.66407 0.44141,1.0625 v 118.46485 c 0,0.39453 -0.16016,0.77734 -0.44141,1.05859 -0.28125,0.28125 -0.66016,0.44141 -1.05859,0.44141 h -3.23047 c -0.39844,0 -0.78125,-0.16016 -1.0625,-0.44141 -0.28125,-0.28125 -0.4375,-0.66406 -0.4375,-1.05859 V 170.35937 c 0,-0.39843 0.15625,-0.78125 0.4375,-1.0625 0.28125,-0.28125 0.66406,-0.4375 1.0625,-0.4375 z m 0,0"
         clip-rule="nonzero"
         id="path36" />
    </clipPath>
    <clipPath
       id="041274a8cc">
      <path
         d="m 264.64844,168.94141 h 6 v 121.41796 h -6 z m 0,0"
         clip-rule="nonzero"
         id="path37" />
    </clipPath>
    <clipPath
       id="96fac6b02f">
      <path
         d="m 266.14453,168.94141 h 3.22656 c 0.39844,0 0.77735,0.15625 1.0586,0.4375 0.28125,0.28125 0.4414,0.66406 0.4414,1.05859 v 118.29297 c 0,0.39844 -0.16015,0.78125 -0.4414,1.05859 -0.28125,0.28125 -0.66016,0.44141 -1.0586,0.44141 h -3.22656 c -0.39844,0 -0.77734,-0.16016 -1.05859,-0.44141 -0.28125,-0.27734 -0.4375,-0.66015 -0.4375,-1.05859 V 170.4375 c 0,-0.39453 0.15625,-0.77734 0.4375,-1.05859 0.28125,-0.28125 0.66015,-0.4375 1.05859,-0.4375 z m 0,0"
         clip-rule="nonzero"
         id="path38" />
    </clipPath>
    <clipPath
       id="7d1c67a042">
      <path
         d="M 125.39453,147.19922 H 252.48828 V 260.96094 H 125.39453 Z m 0,0"
         clip-rule="nonzero"
         id="path39" />
    </clipPath>
    <clipPath
       id="e6b6b31016">
      <path
         d="m 130.64453,147.19922 h 116.51172 c 2.89844,0 5.25,2.34765 5.25,5.25 v 103.26172 c 0,2.89843 -2.35156,5.25 -5.25,5.25 H 130.64453 c -2.89844,0 -5.25,-2.35157 -5.25,-5.25 V 152.44922 c 0,-2.90235 2.35156,-5.25 5.25,-5.25 z m 0,0"
         clip-rule="nonzero"
         id="path40" />
    </clipPath>
    <clipPath
       id="5791b77b38">
      <path
         d="m 119.51953,147.19922 h 11.74609 v 113.78906 h -11.74609 z m 0,0"
         clip-rule="nonzero"
         id="path41" />
    </clipPath>
    <clipPath
       id="3ffbb96f06">
      <path
         d="m 124.76953,147.19922 h 1.2461 c 2.90234,0 5.24999,2.34765 5.24999,5.25 v 103.26172 c 0,2.89843 -2.34765,5.25 -5.24999,5.25 h -1.2461 c -2.89844,0 -5.25,-2.35157 -5.25,-5.25 V 152.44922 c 0,-2.90235 2.35156,-5.25 5.25,-5.25 z m 0,0"
         clip-rule="nonzero"
         id="path42" />
    </clipPath>
    <clipPath
       id="4df3357245">
      <path
         d="m 125.39453,147.19922 h 8.77734 v 113.76172 h -8.77734 z m 0,0"
         clip-rule="nonzero"
         id="path43" />
    </clipPath>
    <clipPath
       id="aa813e5338">
      <path
         d="m 240.65625,147.16016 h 11.74609 v 113.79296 h -11.74609 z m 0,0"
         clip-rule="nonzero"
         id="path44" />
    </clipPath>
    <clipPath
       id="2854db1ec0">
      <path
         d="m 247.15234,260.95312 h -1.24609 c -2.90234,0 -5.25,-2.35156 -5.25,-5.25 V 152.4375 c 0,-2.89844 2.34766,-5.25 5.25,-5.25 h 1.24609 c 2.89844,0 5.25,2.35156 5.25,5.25 v 103.26562 c 0,2.89844 -2.35156,5.25 -5.25,5.25 z m 0,0"
         clip-rule="nonzero"
         id="path45" />
    </clipPath>
    <clipPath
       id="b2e53875a2">
      <path
         d="m 237.75,147.1875 h 8.78125 V 260.95312 H 237.75 Z m 0,0"
         clip-rule="nonzero"
         id="path46" />
    </clipPath>
  </defs>
  <g
     clip-path="url(#9e61385cb6)"
     id="g48"
     transform="translate(-101.04688,-84.675775)">
    <g
       clip-path="url(#de32071ce2)"
       id="g47">
      <path
         fill="#858684"
         d="m 101.04688,84.675781 h 158.10697 l -0.005,11.092571 11.72993,0.02952 V 290.33203 h -169.8319 z"
         fill-opacity="1"
         fill-rule="nonzero"
         id="path47" />
    </g>
  </g>
  <g
     clip-path="url(#2bf55dcc38)"
     id="g50"
     transform="translate(-101.04688,-84.675775)">
    <g
       clip-path="url(#3eee7c2c87)"
       id="g49">
      <path
         fill="#858684"
         d="M 115.84766,143.30859 H 255.90625 V 264.85156 H 115.84766 Z m 0,0"
         fill-opacity="1"
         fill-rule="nonzero"
         id="path48" />
    </g>
  </g>
  <g
     clip-path="url(#7734e3004f)"
     id="g52"
     transform="translate(-101.04688,-84.675775)">
    <g
       clip-path="url(#bf39e28153)"
       id="g51">
      <path
         stroke-linecap="butt"
         transform="matrix(0.75,0,0,0.75,115.84753,143.30787)"
         fill="none"
         stroke-linejoin="miter"
         d="M 7.000167,9.69547e-4 H 179.96372 c 3.86979,0 7,3.135416453 7,7.000000453 v 148.04688 c 0,3.86459 -3.13021,7 -7,7 H 7.000167 c -3.864584,0 -7.00000039,-3.13541 -7.00000039,-7 V 7.00097 C 1.6661e-4,3.136386 3.135583,9.69547e-4 7.000167,9.69547e-4 Z m 0,0"
         stroke="#969694"
         stroke-width="4"
         stroke-opacity="1"
         stroke-miterlimit="4"
         id="path50" />
    </g>
  </g>
  <g
     clip-path="url(#b8535e656f)"
     id="g54"
     transform="translate(-101.04688,-84.675775)">
    <g
       clip-path="url(#76905ecb8b)"
       id="g53">
      <path
         fill="#858684"
         d="m 168.69141,269.07031 h 34.55468 v 16.44531 h -34.55468 z m 0,0"
         fill-opacity="1"
         fill-rule="nonzero"
         id="path52" />
    </g>
  </g>
  <g
     clip-path="url(#7af381faa1)"
     id="g56"
     transform="translate(-101.04688,-84.675775)">
    <g
       clip-path="url(#a53c80bcc3)"
       id="g55">
      <path
         stroke-linecap="butt"
         transform="matrix(0.75,0,0,0.75,168.6897,269.07282)"
         fill="none"
         stroke-linejoin="miter"
         d="M 28.090818,17.095611 40.976235,4.824777 C 41.809569,4.038318 42.069985,2.819568 41.64811,1.757068 41.221027,0.694568 40.194985,0.00185976 39.049152,0.00185976 H 6.997066 c -1.145833,0 -2.171875,0.69270824 -2.598958,1.75520824 -0.421875,1.0625 -0.15625,2.28125 0.671875,3.067709 L 17.9554,17.095611 c 2.838542,2.697917 7.296876,2.697917 10.135418,0 z m 0,0"
         stroke="#969694"
         stroke-width="4"
         stroke-opacity="1"
         stroke-miterlimit="4"
         id="path54" />
    </g>
  </g>
  <g
     clip-path="url(#b6a68f62be)"
     id="g59"
     transform="translate(-101.04688,-84.675775)">
    <path
       fill="#7d7d7c"
       d="m 241.28125,102.35547 h 29.60156 v 3.75 h -29.60156 z m 0,0"
       fill-opacity="1"
       fill-rule="nonzero"
       id="path58" />
  </g>
  <g
     clip-path="url(#c146c1183d)"
     id="g60"
     transform="translate(-101.04688,-84.675775)">
    <path
       fill="#7d7d7c"
       d="m 241.28125,108.28906 h 29.60156 v 3.75 h -29.60156 z m 0,0"
       fill-opacity="1"
       fill-rule="nonzero"
       id="path59" />
  </g>
  <g
     clip-path="url(#f6c6be663a)"
     id="g61"
     transform="translate(-101.04688,-84.675775)">
    <path
       fill="#7d7d7c"
       d="m 241.28125,114.28906 h 29.60156 v 3.75 h -29.60156 z m 0,0"
       fill-opacity="1"
       fill-rule="nonzero"
       id="path60" />
  </g>
  <g
     clip-path="url(#ede43a1824)"
     id="g62"
     transform="translate(-101.04688,-84.675775)">
    <path
       fill="#7d7d7c"
       d="m 241.28125,120.28906 h 29.60156 v 3.75 h -29.60156 z m 0,0"
       fill-opacity="1"
       fill-rule="nonzero"
       id="path61" />
  </g>
  <g
     clip-path="url(#6611961998)"
     id="g63"
     transform="translate(-101.04688,-84.675775)">
    <path
       fill="#7d7d7c"
       d="m 241.28125,126.28906 h 29.60156 v 3.75 h -29.60156 z m 0,0"
       fill-opacity="1"
       fill-rule="nonzero"
       id="path62" />
  </g>
  <g
     clip-path="url(#fa6a52927e)"
     id="g64"
     transform="translate(-101.04688,-84.675775)">
    <path
       fill="#7d7d7c"
       d="m 101.04688,102.32031 h 29.60546 v 3.75 h -29.60546 z m 0,0"
       fill-opacity="1"
       fill-rule="nonzero"
       id="path63" />
  </g>
  <g
     clip-path="url(#152ae4f385)"
     id="g65"
     transform="translate(-101.04688,-84.675775)">
    <path
       fill="#7d7d7c"
       d="m 101.04688,108.25781 h 29.60546 v 3.75 h -29.60546 z m 0,0"
       fill-opacity="1"
       fill-rule="nonzero"
       id="path64" />
  </g>
  <g
     clip-path="url(#5f5f1978bf)"
     id="g66"
     transform="translate(-101.04688,-84.675775)">
    <path
       fill="#7d7d7c"
       d="m 101.04688,114.25781 h 29.60546 v 3.75 h -29.60546 z m 0,0"
       fill-opacity="1"
       fill-rule="nonzero"
       id="path65" />
  </g>
  <g
     clip-path="url(#35d74b0178)"
     id="g67"
     transform="translate(-101.04688,-84.675775)">
    <path
       fill="#7d7d7c"
       d="m 101.04688,120.25781 h 29.60546 v 3.75 h -29.60546 z m 0,0"
       fill-opacity="1"
       fill-rule="nonzero"
       id="path66" />
  </g>
  <g
     clip-path="url(#9f0d51beec)"
     id="g68"
     transform="translate(-101.04688,-84.675775)">
    <path
       fill="#7d7d7c"
       d="m 101.04688,126.25781 h 29.60546 v 3.75 h -29.60546 z m 0,0"
       fill-opacity="1"
       fill-rule="nonzero"
       id="path67" />
  </g>
  <g
     clip-path="url(#c0af187d9b)"
     id="g70"
     transform="translate(-101.04688,-84.675775)">
    <g
       clip-path="url(#76691d0f84)"
       id="g69">
      <path
         fill="#969694"
         d="m 115.84766,96.40625 h 140.29296 v 41.71484 H 115.84766 Z m 0,0"
         fill-opacity="1"
         fill-rule="nonzero"
         id="path68" />
    </g>
  </g>
  <g
     clip-path="url(#aa55de0e83)"
     id="g72"
     transform="translate(-101.04688,-84.675775)">
    <g
       clip-path="url(#04a5dd5eba)"
       id="g71">
      <path
         stroke-linecap="butt"
         transform="matrix(0.75,0,0,0.75,115.85455,96.405836)"
         fill="none"
         stroke-linejoin="miter"
         d="M 24.996023,5.51908e-4 H 161.94916 c 13.80729,0 24.99479,11.192709092 24.99479,24.994793092 v 5.619792 c 0,13.802084 -11.1875,24.994794 -24.99479,24.994794 H 24.996023 c -13.807293,0 -24.99479332,-11.19271 -24.99479332,-24.994794 V 24.995345 C 0.00122968,11.193261 11.18873,5.51908e-4 24.996023,5.51908e-4 Z m 0,0"
         stroke="#969694"
         stroke-width="4"
         stroke-opacity="1"
         stroke-miterlimit="4"
         id="path70" />
    </g>
  </g>
  <g
     clip-path="url(#7196d010b5)"
     id="g74"
     transform="translate(-101.04688,-84.675775)">
    <g
       clip-path="url(#bcd9a2434c)"
       id="g73">
      <path
         fill="#858684"
         d="M 115.84766,98.089844 H 256.04297 V 136.43359 H 115.84766 Z m 0,0"
         fill-opacity="1"
         fill-rule="nonzero"
         id="path72" />
    </g>
  </g>
  <g
     clip-path="url(#113bd8ff9f)"
     id="g76"
     transform="translate(-101.04688,-84.675775)">
    <g
       clip-path="url(#75621f5e6e)"
       id="g75">
      <path
         stroke-linecap="butt"
         transform="matrix(0.75,0,0,0.75,115.84605,98.091579)"
         fill="none"
         stroke-linejoin="miter"
         d="M 24.996933,-0.00231388 H 161.97089 c 13.80729,0 25,11.19270788 25,24.99999988 v 1.125 c 0,13.807292 -11.19271,25 -25,25 H 24.996933 c -13.802084,0 -24.99479199,-11.192708 -24.99479199,-25 v -1.125 c 0,-13.807292 11.19270799,-24.99999988 24.99479199,-24.99999988 z m 0,0"
         stroke="#969694"
         stroke-width="4"
         stroke-opacity="1"
         stroke-miterlimit="4"
         id="path74" />
    </g>
  </g>
  <g
     fill="#969694"
     fill-opacity="1"
     id="g79"
     transform="translate(-101.04688,-84.675775)">
    <g
       transform="translate(152.17252,123.54106)"
       id="g78">
      <g
         id="g77">
        <path
           d="M 5.796875,0 H 4.625 L 1.703125,-4.3125 4.4375,-8.109375 h 1.09375 l -2.734375,3.75 z M 1.703125,0 H 0.78125 v -8.109375 h 0.921875 z m 0,0"
           id="path76" />
      </g>
    </g>
  </g>
  <g
     fill="#969694"
     fill-opacity="1"
     id="g82"
     transform="translate(-101.04688,-84.675775)">
    <g
       transform="translate(157.87072,123.54106)"
       id="g81">
      <g
         id="g80">
        <path
           d="m 5.0625,-5.125 c 0,0.355469 -0.078125,0.640625 -0.234375,0.859375 -0.148437,0.21875 -0.339844,0.386719 -0.578125,0.5 -0.242188,0.105469 -0.496094,0.15625 -0.765625,0.15625 L 5.4375,0 H 4.3125 L 2.578125,-3.453125 h -0.875 V 0 H 0.78125 v -8.109375 h 2.140625 c 0.757813,0 1.304687,0.105469 1.640625,0.3125 0.332031,0.210937 0.5,0.636719 0.5,1.28125 z M 2.890625,-4.25 c 0.25,0 0.460937,-0.019531 0.640625,-0.0625 0.1875,-0.050781 0.332031,-0.148438 0.4375,-0.296875 0.113281,-0.144531 0.171875,-0.363281 0.171875,-0.65625 v -1.125 c 0,-0.601563 -0.390625,-0.90625 -1.171875,-0.90625 H 1.703125 V -4.25 Z m 0,0"
           id="path79" />
      </g>
    </g>
  </g>
  <g
     fill="#969694"
     fill-opacity="1"
     id="g85"
     transform="translate(-101.04688,-84.675775)">
    <g
       transform="translate(163.59385,123.54106)"
       id="g84">
      <g
         id="g83">
        <path
           d="m 3.171875,-7.40625 c -0.304687,0 -0.585937,0.042969 -0.84375,0.125 -0.25,0.074219 -0.460937,0.214844 -0.625,0.421875 C 1.546875,-6.648438 1.46875,-6.34375 1.46875,-5.9375 v 3.796875 c 0,0.9375 0.578125,1.40625 1.734375,1.40625 0.5,0 1.050781,-0.097656 1.65625,-0.296875 v 0.921875 C 4.585938,-0.0234375 4.304688,0.03125 4.015625,0.0625 3.734375,0.101562 3.445312,0.125 3.15625,0.125 c -1.710938,0 -2.5625,-0.734375 -2.5625,-2.203125 v -3.84375 c 0,-1.539063 0.851562,-2.3125 2.5625,-2.3125 0.28125,0 0.5625,0.023437 0.84375,0.0625 C 4.28125,-8.140625 4.550781,-8.082031 4.8125,-8 v 0.890625 C 4.21875,-7.304688 3.671875,-7.40625 3.171875,-7.40625 Z m 0,0"
           id="path82" />
      </g>
    </g>
  </g>
  <g
     fill="#969694"
     fill-opacity="1"
     id="g88"
     transform="translate(-101.04688,-84.675775)">
    <g
       transform="translate(168.87251,124.3811)"
       id="g87">
      <g
         id="g86">
        <path
           d="m 9.6875,-10.796875 c -0.1875,-0.0625 -0.484375,-0.125 -0.890625,-0.1875 -0.398437,-0.07031 -0.804687,-0.132813 -1.21875,-0.1875 -0.417969,-0.05078 -0.75,-0.07813 -1,-0.07813 -1.9375,0 -3.007813,0.75 -3.203125,2.25 l -0.703125,5.8125 c -0.0625,0.46875 -0.011719,0.84375 0.15625,1.125 0.164063,0.273438 0.390625,0.476562 0.671875,0.609375 0.289062,0.136719 0.585938,0.234375 0.890625,0.296875 0.144531,0.023438 0.300781,0.042969 0.46875,0.0625 0.175781,0.023438 0.351563,0.03125 0.53125,0.03125 0.644531,0 1.335937,-0.113281 2.078125,-0.34375 L 8,-5.71875 H 6.328125 L 5.984375,-7.015625 H 9.4375 L 8.625,-0.375 C 7.332031,0 6.175781,0.1875 5.15625,0.1875 4.289062,0.1875 3.507812,0.0546875 2.8125,-0.203125 2.125,-0.472656 1.65625,-0.972656 1.40625,-1.703125 1.28125,-2.128906 1.242188,-2.613281 1.296875,-3.15625 l 0.71875,-5.828125 c 0.101563,-0.769531 0.316406,-1.382813 0.640625,-1.84375 0.332031,-0.457031 0.734375,-0.804687 1.203125,-1.046875 0.476563,-0.238281 0.972656,-0.410156 1.484375,-0.515625 0.207031,-0.05078 0.425781,-0.08203 0.65625,-0.09375 0.226562,-0.01953 0.460938,-0.03125 0.703125,-0.03125 0.570313,0 1.125,0.02734 1.65625,0.07813 0.53125,0.04297 1.03125,0.117188 1.5,0.21875 z m 0,0"
           id="path85" />
      </g>
    </g>
  </g>
  <g
     fill="#969694"
     fill-opacity="1"
     id="g91"
     transform="translate(-101.04688,-84.675775)">
    <g
       transform="translate(178.37057,124.3811)"
       id="g90">
      <g
         id="g89">
        <path
           d="m 9.078125,0 h -1.4375 l -0.59375,-3.75 h -3.96875 l -1.5,3.75 h -1.375 l 5.1875,-12.328125 h 1.59375 z m -2.21875,-5.015625 -0.890625,-5.5625 H 5.859375 l -2.265625,5.5625 z m 0,0"
           id="path88" />
      </g>
    </g>
  </g>
  <g
     fill="#969694"
     fill-opacity="1"
     id="g94"
     transform="translate(-101.04688,-84.675775)">
    <g
       transform="translate(187.65967,124.3811)"
       id="g93">
      <g
         id="g92">
        <path
           d="m 11.078125,0 h -1.21875 l 1.28125,-10.4375 h -0.0625 L 6.828125,0 H 5.5625 L 3.78125,-10.4375 H 3.71875 L 2.4375,0 H 1.203125 L 2.71875,-12.328125 h 2.046875 l 1.71875,10.25 0.03125,0.03125 4.0625,-10.28125 h 2 z m 0,0"
           id="path91" />
      </g>
    </g>
  </g>
  <g
     fill="#969694"
     fill-opacity="1"
     id="g97"
     transform="translate(-101.04688,-84.675775)">
    <g
       transform="translate(199.93116,124.3811)"
       id="g96">
      <g
         id="g95">
        <path
           d="M 7.5625,0 H 1.203125 L 2.71875,-12.328125 H 8.9375 L 8.765625,-11.03125 H 3.9375 l -0.5,4.015625 h 4.375 L 7.640625,-5.71875 H 3.28125 L 2.734375,-1.296875 H 7.71875 Z m 0,0"
           id="path94" />
      </g>
    </g>
  </g>
  <g
     fill="#969694"
     fill-opacity="1"
     id="g100"
     transform="translate(-101.04688,-84.675775)">
    <g
       transform="translate(208.19447,124.3811)"
       id="g99">
      <g
         id="g98">
        <path
           d="m 5.71875,-7.0625 c 0.894531,0 1.507812,0.210938 1.84375,0.625 0.332031,0.40625 0.425781,1.15625 0.28125,2.25 L 7.734375,-3.28125 C 7.554688,-1.957031 7.164062,-1.050781 6.5625,-0.5625 c -0.625,0.5 -1.53125,0.75 -2.71875,0.75 -0.386719,0 -0.8125,-0.027344 -1.28125,-0.078125 -0.460938,-0.0546875 -0.964844,-0.125 -1.515625,-0.21875 l 0.1875,-1.546875 c 1.0625,0.324219 2.007813,0.484375 2.84375,0.484375 0.675781,0 1.191406,-0.101563 1.546875,-0.3125 C 6,-1.671875 6.21875,-2.0625 6.28125,-2.65625 L 6.5,-4.25 C 6.570312,-4.851562 6.488281,-5.242188 6.25,-5.421875 6.007812,-5.609375 5.632812,-5.703125 5.125,-5.703125 H 4.046875 C 3.203125,-5.703125 2.601562,-5.925781 2.25,-6.375 1.90625,-6.820312 1.796875,-7.582031 1.921875,-8.65625 l 0.109375,-1 c 0.132812,-0.96875 0.484375,-1.6875 1.046875,-2.15625 0.582031,-0.46875 1.5625,-0.703125 2.9375,-0.703125 0.332031,0 0.691406,0.02344 1.078125,0.0625 0.394531,0.03125 0.820312,0.07813 1.28125,0.140625 l -0.171875,1.390625 c -0.5,-0.101563 -0.960937,-0.179687 -1.375,-0.234375 C 6.421875,-11.21875 6.070312,-11.25 5.78125,-11.25 c -0.875,0 -1.480469,0.117188 -1.8125,0.34375 -0.3125,0.242188 -0.511719,0.640625 -0.59375,1.203125 l -0.15625,1.40625 C 3.144531,-7.765625 3.238281,-7.425781 3.5,-7.28125 3.769531,-7.132812 4.140625,-7.0625 4.609375,-7.0625 Z m 0,0"
           id="path97" />
      </g>
    </g>
  </g>
  <g
     clip-path="url(#cdab320cde)"
     id="g102"
     transform="translate(-101.04688,-84.675775)">
    <g
       clip-path="url(#1d223ef5fc)"
       id="g101">
      <path
         fill="#858684"
         d="m 101.04688,168.85937 h 6.23046 v 121.46875 h -6.23046 z m 0,0"
         fill-opacity="1"
         fill-rule="nonzero"
         id="path100" />
    </g>
  </g>
  <g
     clip-path="url(#89fb752987)"
     id="g104"
     transform="translate(-101.04688,-84.675775)">
    <g
       clip-path="url(#c99eb4f79e)"
       id="g103">
      <path
         stroke-linecap="butt"
         transform="matrix(0.75,0,0,0.75,101.04683,168.94156)"
         fill="none"
         stroke-linejoin="miter"
         d="m 1.994851,-2.07275e-4 h 4.307292 c 0.526042,0 1.036459,0.208333275 1.411459,0.583333275 0.375,0.375 0.583333,0.885417 0.583333,1.411459 V 159.71856 c 0,0.53125 -0.208333,1.04167 -0.583333,1.41146 -0.375,0.375 -0.885417,0.58854 -1.411459,0.58854 H 1.994851 c -0.526042,0 -1.036458,-0.21354 -1.411458,-0.58854 C 0.208392,160.76023 5.91139e-5,160.24981 5.91139e-5,159.71856 V 1.994585 c 0,-0.526042 0.2083328861,-1.036459 0.5833338861,-1.411459 0.375,-0.375 0.885416,-0.583333275 1.411458,-0.583333275 z m 0,0"
         stroke="#969694"
         stroke-width="4"
         stroke-opacity="1"
         stroke-miterlimit="4"
         id="path102" />
    </g>
  </g>
  <g
     clip-path="url(#e45f990d50)"
     id="g106"
     transform="translate(-101.04688,-84.675775)">
    <g
       clip-path="url(#d98425e87f)"
       id="g105">
      <path
         fill="#858684"
         d="m 264.64844,168.85937 h 6.23047 v 121.46875 h -6.23047 z m 0,0"
         fill-opacity="1"
         fill-rule="nonzero"
         id="path104" />
    </g>
  </g>
  <g
     clip-path="url(#041274a8cc)"
     id="g108"
     transform="translate(-101.04688,-84.675775)">
    <g
       clip-path="url(#96fac6b02f)"
       id="g107">
      <path
         stroke-linecap="butt"
         transform="matrix(0.75,0,0,0.75,264.64674,168.94156)"
         fill="none"
         stroke-linejoin="miter"
         d="m 1.99705,-2.07275e-4 h 4.302084 c 0.53125,0 1.036458,0.208333275 1.411458,0.583333275 0.375,0.375 0.588542,0.885417 0.588542,1.411459 V 159.71856 c 0,0.53125 -0.213542,1.04167 -0.588542,1.41146 -0.375,0.375 -0.880208,0.58854 -1.411458,0.58854 H 1.99705 c -0.53125,0 -1.036458,-0.21354 -1.411458,-0.58854 -0.375001,-0.36979 -0.5833339,-0.88021 -0.5833339,-1.41146 V 1.994585 c 0,-0.526042 0.2083329,-1.036459 0.5833339,-1.411459 0.375,-0.375 0.880208,-0.583333275 1.411458,-0.583333275 z m 0,0"
         stroke="#969694"
         stroke-width="4"
         stroke-opacity="1"
         stroke-miterlimit="4"
         id="path106" />
    </g>
  </g>
  <g
     clip-path="url(#7d1c67a042)"
     id="g110"
     transform="translate(-101.04688,-84.675775)">
    <g
       clip-path="url(#e6b6b31016)"
       id="g109">
      <path
         fill="#000000"
         d="M 125.39453,147.19922 H 252.48828 V 260.96094 H 125.39453 Z m 0,0"
         fill-opacity="1"
         fill-rule="nonzero"
         id="path108" />
    </g>
  </g>
  <g
     clip-path="url(#5791b77b38)"
     id="g112"
     transform="translate(-101.04688,-84.675775)">
    <g
       clip-path="url(#3ffbb96f06)"
       id="g111">
      <path
         fill="#585956"
         d="m 119.51953,147.19922 h 11.74609 v 113.74219 h -11.74609 z m 0,0"
         fill-opacity="1"
         fill-rule="nonzero"
         id="path110" />
    </g>
  </g>
  <g
     clip-path="url(#4df3357245)"
     id="g113"
     transform="translate(-101.04688,-84.675775)">
    <path
       fill="#585956"
       d="m 125.39453,147.19922 h 8.77734 v 113.74609 h -8.77734 z m 0,0"
       fill-opacity="1"
       fill-rule="nonzero"
       id="path112" />
  </g>
  <g
     clip-path="url(#aa813e5338)"
     id="g115"
     transform="translate(-101.04688,-84.675775)">
    <g
       clip-path="url(#2854db1ec0)"
       id="g114">
      <path
         fill="#585956"
         d="M 252.40234,260.95312 H 240.65625 V 147.20703 h 11.74609 z m 0,0"
         fill-opacity="1"
         fill-rule="nonzero"
         id="path113" />
    </g>
  </g>
  <g
     clip-path="url(#b2e53875a2)"
     id="g116"
     transform="translate(-101.04688,-84.675775)">
    <path
       fill="#585956"
       d="M 246.53125,260.95312 H 237.75 v -113.75 h 8.78125 z m 0,0"
       fill-opacity="1"
       fill-rule="nonzero"
       id="path115" />
  </g>
  <g
     fill="#000000"
     fill-opacity="1"
     id="g119"
     transform="translate(-101.04688,-84.675775)">
    <g
       transform="translate(124.02078,153.89921)"
       id="g118">
      <g
         id="g117">
        <path
           d="M 3.65625,3.640625 H 1.390625 C 0.460938,3.640625 0,3.101562 0,2.03125 V 0.5 h 5.125 v 1.53125 c 0,1.070312 -0.492188,1.609375 -1.46875,1.609375 z m 0,-0.546875 C 3.925781,3.09375 4.125,3.039062 4.25,2.9375 4.382812,2.84375 4.472656,2.710938 4.515625,2.546875 4.566406,2.390625 4.59375,2.210938 4.59375,2.015625 v -0.9375 H 0.515625 v 0.90625 c 0,0.738281 0.296875,1.109375 0.890625,1.109375 z m 0,0"
           id="path116" />
      </g>
    </g>
  </g>
  <g
     fill="#000000"
     fill-opacity="1"
     id="g122"
     transform="translate(-101.04688,-84.675775)">
    <g
       transform="translate(124.02078,157.91519)"
       id="g121">
      <g
         id="g120">
        <path
           d="m 0,4.59375 v -0.5 H 4.328125 V 4.0625 L 0,2.828125 V 2.3125 L 4.328125,1.046875 V 1.015625 H 0 V 0.5 H 5.125 V 1.359375 L 0.859375,2.59375 V 2.609375 L 5.125,3.765625 V 4.59375 Z m 0,0"
           id="path119" />
      </g>
    </g>
  </g>
  <g
     fill="#000000"
     fill-opacity="1"
     id="g125"
     transform="translate(-101.04688,-84.675775)">
    <g
       transform="translate(124.02078,163.01209)"
       id="g124">
      <g
         id="g123">
        <path
           d="M 4.484375,3.46875 C 4.503906,3.382812 4.53125,3.257812 4.5625,3.09375 4.59375,2.925781 4.617188,2.753906 4.640625,2.578125 4.660156,2.398438 4.671875,2.257812 4.671875,2.15625 c 0,-0.804688 -0.3125,-1.203125 -0.9375,-1.203125 h -2.40625 c -0.199219,0 -0.355469,0.035156 -0.46875,0.109375 C 0.742188,1.144531 0.65625,1.25 0.59375,1.375 0.539062,1.5 0.503906,1.628906 0.484375,1.765625 0.472656,1.828125 0.460938,1.894531 0.453125,1.96875 0.441406,2.039062 0.4375,2.113281 0.4375,2.1875 c 0,0.257812 0.046875,0.539062 0.140625,0.84375 H 2.375 V 2.328125 L 2.90625,2.125 v 1.4375 h -2.75 C 0,3.039062 -0.078125,2.566406 -0.078125,2.140625 c 0,-0.355469 0.0546875,-0.683594 0.15625,-0.984375 C 0.191406,0.851562 0.398438,0.632812 0.703125,0.5 0.878906,0.414062 1.082031,0.375 1.3125,0.375 H 3.734375 C 4.054688,0.375 4.3125,0.429688 4.5,0.546875 4.6875,0.660156 4.828125,0.8125 4.921875,1 c 0.101563,0.1875 0.175781,0.382812 0.21875,0.59375 0.039063,0.164062 0.0625,0.347656 0.0625,0.546875 0,0.238281 -0.011719,0.46875 -0.03125,0.6875 C 5.148438,3.054688 5.117188,3.269531 5.078125,3.46875 Z m 0,0"
           id="path122" />
      </g>
    </g>
  </g>
  <g
     fill="#000000"
     fill-opacity="1"
     id="g128"
     transform="translate(-101.04688,-84.675775)">
    <g
       transform="translate(124.02078,166.95706)"
       id="g127">
      <g
         id="g126">
        <path
           d="m 1.96875,1.890625 v -1.65625 h 0.578125 v 1.65625 z m 0,0"
           id="path125" />
      </g>
    </g>
  </g>
  <g
     fill="#000000"
     fill-opacity="1"
     id="g131"
     transform="translate(-101.04688,-84.675775)">
    <g
       transform="translate(124.02078,169.07945)"
       id="g130">
      <g
         id="g129">
        <path
           d="M 0,3.65625 V 2.921875 L 2.71875,1.078125 5.125,2.796875 V 3.5 L 2.75,1.765625 Z M 0,1.078125 V 0.5 h 5.125 v 0.578125 z m 0,0"
           id="path128" />
      </g>
    </g>
  </g>
  <g
     fill="#000000"
     fill-opacity="1"
     id="g134"
     transform="translate(-101.04688,-84.675775)">
    <g
       transform="translate(124.02078,172.68515)"
       id="g133">
      <g
         id="g132">
        <path
           d="M 4.671875,2 C 4.671875,1.8125 4.644531,1.632812 4.59375,1.46875 4.550781,1.3125 4.460938,1.179688 4.328125,1.078125 4.203125,0.984375 4.007812,0.9375 3.75,0.9375 H 1.34375 c -0.585938,0 -0.875,0.363281 -0.875,1.09375 0,0.3125 0.0625,0.65625 0.1875,1.03125 H 0.078125 C 0.015625,2.894531 -0.0234375,2.71875 -0.046875,2.53125 -0.0664062,2.351562 -0.078125,2.175781 -0.078125,2 c 0,-1.085938 0.460937,-1.625 1.390625,-1.625 h 2.421875 c 0.976563,0 1.46875,0.539062 1.46875,1.625 0,0.175781 -0.011719,0.351562 -0.03125,0.53125 C 5.148438,2.707031 5.113281,2.878906 5.0625,3.046875 H 4.484375 c 0.125,-0.375 0.1875,-0.726563 0.1875,-1.046875 z m 0,0"
           id="path131" />
      </g>
    </g>
  </g>
  <g
     fill="#000000"
     fill-opacity="1"
     id="g137"
     transform="translate(-101.04688,-84.675775)">
    <g
       transform="translate(124.02078,176.0226)"
       id="g136">
      <g
         id="g135">
        <path
           d="m 1.96875,1.890625 v -1.65625 h 0.578125 v 1.65625 z m 0,0"
           id="path134" />
      </g>
    </g>
  </g>
  <g
     fill="#000000"
     fill-opacity="1"
     id="g140"
     transform="translate(-101.04688,-84.675775)">
    <g
       transform="translate(124.02078,178.14499)"
       id="g139">
      <g
         id="g138">
        <path
           d="m 0.4375,2 c 0,0.1875 0.019531,0.351562 0.0625,0.5 0.050781,0.144531 0.140625,0.253906 0.265625,0.328125 0.125,0.082031 0.304687,0.125 0.546875,0.125 H 5.125 V 3.5 H 1.3125 C 0.382812,3.5 -0.078125,3 -0.078125,2 c 0,-0.273438 0.0390625,-0.523438 0.109375,-0.75 C 0.113281,1.019531 0.253906,0.835938 0.453125,0.703125 0.648438,0.566406 0.9375,0.5 1.3125,0.5 H 5.125 V 1.046875 H 1.3125 c -0.242188,0 -0.421875,0.039063 -0.546875,0.125 C 0.640625,1.253906 0.550781,1.367188 0.5,1.515625 0.457031,1.660156 0.4375,1.820312 0.4375,2 Z m 0,0"
           id="path137" />
      </g>
    </g>
  </g>
  <g
     fill="#000000"
     fill-opacity="1"
     id="g143"
     transform="translate(-101.04688,-84.675775)">
    <g
       transform="translate(124.02078,182.14519)"
       id="g142">
      <g
         id="g141">
        <path
           d="m 2.9375,2.015625 c 0,0.375 -0.089844,0.640625 -0.265625,0.796875 -0.167969,0.15625 -0.480469,0.234375 -0.9375,0.234375 h -0.375 c -0.542969,0 -0.917969,-0.121094 -1.125,-0.359375 -0.2109375,-0.230469 -0.3125,-0.589844 -0.3125,-1.078125 0,-0.167969 0.0117188,-0.351563 0.03125,-0.546875 0.0234375,-0.1875 0.05078125,-0.398438 0.09375,-0.625 H 0.6875 C 0.550781,0.894531 0.484375,1.296875 0.484375,1.640625 c 0,0.28125 0.039063,0.488281 0.125,0.625 0.082031,0.144531 0.25,0.21875 0.5,0.21875 h 0.65625 c 0.25,0 0.410156,-0.058594 0.484375,-0.171875 C 2.332031,2.207031 2.375,2.050781 2.375,1.84375 V 1.390625 c 0,-0.355469 0.085938,-0.617187 0.265625,-0.78125 0.1875,-0.167969 0.503906,-0.25 0.953125,-0.25 h 0.421875 c 0.394531,0 0.691406,0.101563 0.890625,0.3125 0.195312,0.21875 0.296875,0.613281 0.296875,1.1875 0,0.132813 -0.011719,0.285156 -0.03125,0.453125 -0.011719,0.164062 -0.03125,0.347656 -0.0625,0.546875 H 4.53125 C 4.570312,2.640625 4.601562,2.441406 4.625,2.265625 4.65625,2.097656 4.671875,1.953125 4.671875,1.828125 4.671875,1.460938 4.625,1.21875 4.53125,1.09375 4.425781,0.976562 4.257812,0.921875 4.03125,0.921875 H 3.453125 c -0.230469,0 -0.375,0.054687 -0.4375,0.171875 C 2.960938,1.207031 2.9375,1.359375 2.9375,1.546875 Z m 0,0"
           id="path140" />
      </g>
    </g>
  </g>
  <g
     fill="#000000"
     fill-opacity="1"
     id="g146"
     transform="translate(-101.04688,-84.675775)">
    <g
       transform="translate(124.02078,185.5142)"
       id="g145">
      <g
         id="g144">
        <path
           d="m 0,3.765625 v -0.59375 l 1.546875,-0.4375 V 1.09375 L 0,0.65625 V 0.09375 L 5.125,1.625 V 2.28125 Z M 2.078125,2.59375 4.390625,1.9375 V 1.890625 l -2.3125,-0.65625 z m 0,0"
           id="path143" />
      </g>
    </g>
  </g>
  <g
     fill="#000000"
     fill-opacity="1"
     id="g215"
     transform="translate(-101.04688,-84.675775)">
    <g
       transform="translate(124.02078,219.40326)"
       id="g214">
      <g
         id="g213">
        <path
           d="m 0,4.59375 v -0.5 H 4.328125 V 4.0625 L 0,2.828125 V 2.3125 L 4.328125,1.046875 V 1.015625 H 0 V 0.5 H 5.125 V 1.359375 L 0.859375,2.59375 V 2.609375 L 5.125,3.765625 V 4.59375 Z m 0,0"
           id="path212" />
      </g>
    </g>
  </g>
  <g
     fill="#000000"
     fill-opacity="1"
     id="g218"
     transform="translate(-101.04688,-84.675775)">
    <g
       transform="translate(124.02078,224.50015)"
       id="g217">
      <g
         id="g216">
        <path
           d="m 0,3.765625 v -0.59375 l 1.546875,-0.4375 V 1.09375 L 0,0.65625 V 0.09375 L 5.125,1.625 V 2.28125 Z M 2.078125,2.59375 4.390625,1.9375 V 1.890625 l -2.3125,-0.65625 z m 0,0"
           id="path215" />
      </g>
    </g>
  </g>
  <g
     fill="#000000"
     fill-opacity="1"
     id="g221"
     transform="translate(-101.04688,-84.675775)">
    <g
       transform="translate(124.02078,228.35833)"
       id="g220">
      <g
         id="g219">
        <path
           d="M 3.65625,3.640625 H 1.390625 C 0.460938,3.640625 0,3.101562 0,2.03125 V 0.5 h 5.125 v 1.53125 c 0,1.070312 -0.492188,1.609375 -1.46875,1.609375 z m 0,-0.546875 C 3.925781,3.09375 4.125,3.039062 4.25,2.9375 4.382812,2.84375 4.472656,2.710938 4.515625,2.546875 4.566406,2.390625 4.59375,2.210938 4.59375,2.015625 v -0.9375 H 0.515625 v 0.90625 c 0,0.738281 0.296875,1.109375 0.890625,1.109375 z m 0,0"
           id="path218" />
      </g>
    </g>
  </g>
  <g
     fill="#000000"
     fill-opacity="1"
     id="g224"
     transform="translate(-101.04688,-84.675775)">
    <g
       transform="translate(124.02078,232.37431)"
       id="g223">
      <g
         id="g222">
        <path
           d="M 0,3.140625 V 0.5 H 5.125 V 3.078125 H 4.578125 v -2 H 2.90625 V 2.875 H 2.375 V 1.078125 H 0.53125 v 2.0625 z m 0,0"
           id="path221" />
      </g>
    </g>
  </g>
  <g
     fill="#000000"
     fill-opacity="1"
     id="g230"
     transform="translate(-101.04688,-84.675775)">
    <g
       transform="translate(124.02078,237.17139)"
       id="g229">
      <g
         id="g228">
        <path
           d="M 0,1.078125 V 0.5 h 5.125 v 0.578125 z m 0,0"
           id="path227" />
      </g>
    </g>
  </g>
  <g
     fill="#000000"
     fill-opacity="1"
     id="g233"
     transform="translate(-101.04688,-84.675775)">
    <g
       transform="translate(124.02078,238.74149)"
       id="g232">
      <g
         id="g231">
        <path
           d="M 0,3.78125 V 3.09375 L 4.296875,1 H 0 V 0.5 H 5.125 V 1.1875 L 0.890625,3.28125 H 5.125 v 0.5 z m 0,0"
           id="path230" />
      </g>
    </g>
  </g>
  <g
     fill="#000000"
     fill-opacity="1"
     id="g239"
     transform="translate(-101.04688,-84.675775)">
    <g
       transform="translate(124.02078,244.3828)"
       id="g238">
      <g
         id="g237">
        <path
           d="m 0.4375,2 c 0,0.1875 0.019531,0.351562 0.0625,0.5 0.050781,0.144531 0.140625,0.253906 0.265625,0.328125 0.125,0.082031 0.304687,0.125 0.546875,0.125 H 5.125 V 3.5 H 1.3125 C 0.382812,3.5 -0.078125,3 -0.078125,2 c 0,-0.273438 0.0390625,-0.523438 0.109375,-0.75 C 0.113281,1.019531 0.253906,0.835938 0.453125,0.703125 0.648438,0.566406 0.9375,0.5 1.3125,0.5 H 5.125 V 1.046875 H 1.3125 c -0.242188,0 -0.421875,0.039063 -0.546875,0.125 C 0.640625,1.253906 0.550781,1.367188 0.5,1.515625 0.457031,1.660156 0.4375,1.820312 0.4375,2 Z m 0,0"
           id="path236" />
      </g>
    </g>
  </g>
  <g
     fill="#000000"
     fill-opacity="1"
     id="g242"
     transform="translate(-101.04688,-84.675775)">
    <g
       transform="translate(124.02078,248.383)"
       id="g241">
      <g
         id="g240">
        <path
           d="m 2.9375,2.015625 c 0,0.375 -0.089844,0.640625 -0.265625,0.796875 -0.167969,0.15625 -0.480469,0.234375 -0.9375,0.234375 h -0.375 c -0.542969,0 -0.917969,-0.121094 -1.125,-0.359375 -0.2109375,-0.230469 -0.3125,-0.589844 -0.3125,-1.078125 0,-0.167969 0.0117188,-0.351563 0.03125,-0.546875 0.0234375,-0.1875 0.05078125,-0.398438 0.09375,-0.625 H 0.6875 C 0.550781,0.894531 0.484375,1.296875 0.484375,1.640625 c 0,0.28125 0.039063,0.488281 0.125,0.625 0.082031,0.144531 0.25,0.21875 0.5,0.21875 h 0.65625 c 0.25,0 0.410156,-0.058594 0.484375,-0.171875 C 2.332031,2.207031 2.375,2.050781 2.375,1.84375 V 1.390625 c 0,-0.355469 0.085938,-0.617187 0.265625,-0.78125 0.1875,-0.167969 0.503906,-0.25 0.953125,-0.25 h 0.421875 c 0.394531,0 0.691406,0.101563 0.890625,0.3125 0.195312,0.21875 0.296875,0.613281 0.296875,1.1875 0,0.132813 -0.011719,0.285156 -0.03125,0.453125 -0.011719,0.164062 -0.03125,0.347656 -0.0625,0.546875 H 4.53125 C 4.570312,2.640625 4.601562,2.441406 4.625,2.265625 4.65625,2.097656 4.671875,1.953125 4.671875,1.828125 4.671875,1.460938 4.625,1.21875 4.53125,1.09375 4.425781,0.976562 4.257812,0.921875 4.03125,0.921875 H 3.453125 c -0.230469,0 -0.375,0.054687 -0.4375,0.171875 C 2.960938,1.207031 2.9375,1.359375 2.9375,1.546875 Z m 0,0"
           id="path239" />
      </g>
    </g>
  </g>
  <g
     fill="#000000"
     fill-opacity="1"
     id="g245"
     transform="translate(-101.04688,-84.675775)">
    <g
       transform="translate(124.02078,251.752)"
       id="g244">
      <g
         id="g243">
        <path
           d="m 0,3.765625 v -0.59375 l 1.546875,-0.4375 V 1.09375 L 0,0.65625 V 0.09375 L 5.125,1.625 V 2.28125 Z M 2.078125,2.59375 4.390625,1.9375 V 1.890625 l -2.3125,-0.65625 z m 0,0"
           id="path242" />
      </g>
    </g>
  </g>
  <g
     fill="#000000"
     fill-opacity="1"
     id="g248"
     transform="translate(-101.04688,-84.675775)">
    <g
       transform="translate(247.90296,224.35552)"
       id="g247">
      <g
         id="g246">
        <path
           d="M -4.578125,-3.328125 V -2.03125 H 0 v 0.59375 h -4.578125 v 1.296875 H -5.125 v -3.1875 z m 0,0"
           id="path245" />
      </g>
    </g>
  </g>
  <g
     fill="#000000"
     fill-opacity="1"
     id="g251"
     transform="translate(-101.04688,-84.675775)">
    <g
       transform="translate(247.90296,220.89183)"
       id="g250">
      <g
         id="g249">
        <path
           d="m 0,-3.6875 v 0.578125 h -2.375 v 2.03125 H 0 V -0.5 h -5.125 v -0.578125 h 2.21875 v -2.03125 H -5.125 V -3.6875 Z m 0,0"
           id="path248" />
      </g>
    </g>
  </g>
  <g
     fill="#000000"
     fill-opacity="1"
     id="g254"
     transform="translate(-101.04688,-84.675775)">
    <g
       transform="translate(247.90296,216.71017)"
       id="g253">
      <g
         id="g252">
        <path
           d="M 0,-1.078125 V -0.5 h -5.125 v -0.578125 z m 0,0"
           id="path251" />
      </g>
    </g>
  </g>
  <g
     fill="#000000"
     fill-opacity="1"
     id="g257"
     transform="translate(-101.04688,-84.675775)">
    <g
       transform="translate(247.90296,215.14007)"
       id="g256">
      <g
         id="g255">
        <path
           d="m -2.9375,-2.015625 c 0,-0.375 0.089844,-0.640625 0.265625,-0.796875 0.167969,-0.15625 0.480469,-0.234375 0.9375,-0.234375 h 0.375 c 0.542969,0 0.917969,0.121094 1.125,0.359375 0.2109375,0.230469 0.3125,0.589844 0.3125,1.078125 0,0.167969 -0.0117188,0.351563 -0.03125,0.546875 -0.0234375,0.1875 -0.05078125,0.398438 -0.09375,0.625 H -0.6875 c 0.136719,-0.457031 0.203125,-0.859375 0.203125,-1.203125 0,-0.28125 -0.039063,-0.488281 -0.125,-0.625 -0.082031,-0.144531 -0.25,-0.21875 -0.5,-0.21875 h -0.65625 c -0.25,0 -0.410156,0.058594 -0.484375,0.171875 -0.082031,0.105469 -0.125,0.261719 -0.125,0.46875 v 0.453125 c 0,0.355469 -0.085938,0.617187 -0.265625,0.78125 -0.1875,0.167969 -0.503906,0.25 -0.953125,0.25 h -0.421875 c -0.394531,0 -0.691406,-0.101563 -0.890625,-0.3125 -0.195312,-0.21875 -0.296875,-0.613281 -0.296875,-1.1875 0,-0.132813 0.011719,-0.285156 0.03125,-0.453125 0.011719,-0.164062 0.03125,-0.347656 0.0625,-0.546875 h 0.578125 c -0.039062,0.21875 -0.070312,0.417969 -0.09375,0.59375 -0.03125,0.167969 -0.046875,0.3125 -0.046875,0.4375 0,0.367187 0.046875,0.609375 0.140625,0.734375 0.105469,0.117188 0.273438,0.171875 0.5,0.171875 h 0.578125 c 0.230469,0 0.375,-0.054687 0.4375,-0.171875 0.054687,-0.113281 0.078125,-0.265625 0.078125,-0.453125 z m 0,0"
           id="path254" />
      </g>
    </g>
  </g>
  <g
     fill="#000000"
     fill-opacity="1"
     id="g263"
     transform="translate(-101.04688,-84.675775)">
    <g
       transform="translate(247.90296,210.40611)"
       id="g262">
      <g
         id="g261">
        <path
           d="m -2.9375,-2.015625 c 0,-0.375 0.089844,-0.640625 0.265625,-0.796875 0.167969,-0.15625 0.480469,-0.234375 0.9375,-0.234375 h 0.375 c 0.542969,0 0.917969,0.121094 1.125,0.359375 0.2109375,0.230469 0.3125,0.589844 0.3125,1.078125 0,0.167969 -0.0117188,0.351563 -0.03125,0.546875 -0.0234375,0.1875 -0.05078125,0.398438 -0.09375,0.625 H -0.6875 c 0.136719,-0.457031 0.203125,-0.859375 0.203125,-1.203125 0,-0.28125 -0.039063,-0.488281 -0.125,-0.625 -0.082031,-0.144531 -0.25,-0.21875 -0.5,-0.21875 h -0.65625 c -0.25,0 -0.410156,0.058594 -0.484375,0.171875 -0.082031,0.105469 -0.125,0.261719 -0.125,0.46875 v 0.453125 c 0,0.355469 -0.085938,0.617187 -0.265625,0.78125 -0.1875,0.167969 -0.503906,0.25 -0.953125,0.25 h -0.421875 c -0.394531,0 -0.691406,-0.101563 -0.890625,-0.3125 -0.195312,-0.21875 -0.296875,-0.613281 -0.296875,-1.1875 0,-0.132813 0.011719,-0.285156 0.03125,-0.453125 0.011719,-0.164062 0.03125,-0.347656 0.0625,-0.546875 h 0.578125 c -0.039062,0.21875 -0.070312,0.417969 -0.09375,0.59375 -0.03125,0.167969 -0.046875,0.3125 -0.046875,0.4375 0,0.367187 0.046875,0.609375 0.140625,0.734375 0.105469,0.117188 0.273438,0.171875 0.5,0.171875 h 0.578125 c 0.230469,0 0.375,-0.054687 0.4375,-0.171875 0.054687,-0.113281 0.078125,-0.265625 0.078125,-0.453125 z m 0,0"
           id="path260" />
      </g>
    </g>
  </g>
  <g
     fill="#000000"
     fill-opacity="1"
     id="g266"
     transform="translate(-101.04688,-84.675775)">
    <g
       transform="translate(247.90296,207.0371)"
       id="g265">
      <g
         id="g264">
        <path
           d="M 0,-1.078125 V -0.5 h -5.125 v -0.578125 z m 0,0"
           id="path263" />
      </g>
    </g>
  </g>
  <g
     fill="#000000"
     fill-opacity="1"
     id="g269"
     transform="translate(-101.04688,-84.675775)">
    <g
       transform="translate(247.90296,205.467)"
       id="g268">
      <g
         id="g267">
        <path
           d="m -3.65625,-3.640625 h 2.265625 C -0.460938,-3.640625 0,-3.101562 0,-2.03125 V -0.5 h -5.125 v -1.53125 c 0,-1.070312 0.492188,-1.609375 1.46875,-1.609375 z m 0,0.546875 c -0.269531,0 -0.46875,0.054688 -0.59375,0.15625 -0.132812,0.09375 -0.222656,0.226562 -0.265625,0.390625 -0.050781,0.15625 -0.078125,0.335937 -0.078125,0.53125 v 0.9375 h 4.078125 v -0.90625 c 0,-0.738281 -0.296875,-1.109375 -0.890625,-1.109375 z m 0,0"
           id="path266" />
      </g>
    </g>
  </g>
  <g
     fill="#000000"
     fill-opacity="1"
     id="g272"
     transform="translate(-101.04688,-84.675775)">
    <g
       transform="translate(247.90296,201.45102)"
       id="g271">
      <g
         id="g270">
        <path
           d="M 0,-3.140625 V -0.5 h -5.125 v -2.578125 h 0.546875 v 2 H -2.90625 V -2.875 H -2.375 v 1.796875 h 1.84375 v -2.0625 z m 0,0"
           id="path269" />
      </g>
    </g>
  </g>
  <g
     fill="#000000"
     fill-opacity="1"
     id="g278"
     transform="translate(-101.04688,-84.675775)">
    <g
       transform="translate(247.90296,196.65394)"
       id="g277">
      <g
         id="g276">
        <path
           d="M -3.734375,-3.625 H -1.3125 c 0.292969,0 0.53125,0.054688 0.71875,0.15625 0.179688,0.09375 0.3125,0.226562 0.40625,0.390625 0.09375,0.167969 0.1679688,0.34375 0.21875,0.53125 C 0.0507812,-2.460938 0.0625,-2.375 0.0625,-2.28125 0.0703125,-2.1875 0.078125,-2.09375 0.078125,-2 c 0,1.074219 -0.460937,1.609375 -1.390625,1.609375 h -2.421875 c -0.976563,0 -1.46875,-0.535156 -1.46875,-1.609375 0,-1.082031 0.492187,-1.625 1.46875,-1.625 z M -4.703125,-2 c 0,0.1875 0.027344,0.367188 0.078125,0.53125 0.054688,0.15625 0.148438,0.289062 0.28125,0.390625 0.136719,0.09375 0.335938,0.140625 0.59375,0.140625 h 2.4375 c 0.585938,0 0.875,-0.359375 0.875,-1.078125 0,-0.695313 -0.289062,-1.046875 -0.875,-1.046875 H -3.75 c -0.632812,0 -0.953125,0.355469 -0.953125,1.0625 z m 0,0"
           id="path275" />
      </g>
    </g>
  </g>
  <g
     fill="#000000"
     fill-opacity="1"
     id="g281"
     transform="translate(-101.04688,-84.675775)">
    <g
       transform="translate(247.90296,192.63796)"
       id="g280">
      <g
         id="g279">
        <path
           d="m -0.4375,-2 c 0,-0.1875 -0.019531,-0.351562 -0.0625,-0.5 -0.050781,-0.144531 -0.140625,-0.253906 -0.265625,-0.328125 -0.125,-0.082031 -0.304687,-0.125 -0.546875,-0.125 H -5.125 V -3.5 h 3.8125 c 0.929688,0 1.390625,0.5 1.390625,1.5 0,0.273438 -0.0390625,0.523438 -0.109375,0.75 -0.082031,0.230469 -0.222656,0.414062 -0.421875,0.546875 C -0.648438,-0.566406 -0.9375,-0.5 -1.3125,-0.5 H -5.125 v -0.546875 h 3.8125 c 0.242188,0 0.421875,-0.039063 0.546875,-0.125 0.125,-0.082031 0.214844,-0.195313 0.265625,-0.34375 C -0.457031,-1.660156 -0.4375,-1.820312 -0.4375,-2 Z m 0,0"
           id="path278" />
      </g>
    </g>
  </g>
  <g
     fill="#000000"
     fill-opacity="1"
     id="g284"
     transform="translate(-101.04688,-84.675775)">
    <g
       transform="translate(247.90296,188.63776)"
       id="g283">
      <g
         id="g282">
        <path
           d="M -4.578125,-3.328125 V -2.03125 H 0 v 0.59375 h -4.578125 v 1.296875 H -5.125 v -3.1875 z m 0,0"
           id="path281" />
      </g>
    </g>
  </g>
  <g
     fill="#ff00ff"
     fill-opacity="1"
     id="g287"
     transform="translate(-101.04688,-84.675775)">
    <g
       transform="translate(142.56002,192.24297)"
       id="g286">
      <g
         id="g285">
        <path
           d="M 1.046875,0 V -10.5 H 3.15625 v 4.203125 h 4.1875 v 2.09375 H 3.15625 V 0 Z M 7.34375,-2.09375 v -2.109375 h 2.109375 v 2.109375 z m 0,-4.203125 V -8.40625 h 2.109375 v 2.109375 z M 9.453125,0 v -2.09375 h 2.09375 V 0 Z m 0,-8.40625 V -10.5 h 2.09375 v 2.09375 z m 0,0"
           id="path284" />
      </g>
    </g>
  </g>
  <g
     fill="#ff00ff"
     fill-opacity="1"
     id="g290"
     transform="translate(-101.04688,-84.675775)">
    <g
       transform="translate(155.16001,192.24297)"
       id="g289">
      <g
         id="g288">
        <path
           d="m 1.046875,0 v -10.5 h 8.40625 v 2.09375 H 3.15625 v 4.203125 H 9.453125 V -2.09375 H 3.15625 V 0 Z m 8.40625,0 v -2.09375 h 2.09375 V 0 Z m 0,-4.203125 V -8.40625 h 2.09375 v 4.203125 z m 0,0"
           id="path287" />
      </g>
    </g>
  </g>
  <g
     fill="#ff00ff"
     fill-opacity="1"
     id="g293"
     transform="translate(-101.04688,-84.675775)">
    <g
       transform="translate(167.76,192.24297)"
       id="g292">
      <g
         id="g291">
        <path
           d="m 3.15625,-8.40625 v 6.3125 H 1.046875 v -6.3125 z m 0,8.40625 v -2.09375 h 8.390625 V 0 Z m 0,-8.40625 V -10.5 h 8.390625 v 2.09375 z m 0,0"
           id="path290" />
      </g>
    </g>
  </g>
  <g
     fill="#00ffff"
     fill-opacity="1"
     id="g296"
     transform="translate(-101.04688,-84.675775)">
    <g
       transform="translate(140.68502,192.24297)"
       id="g295">
      <g
         id="g294">
        <path
           d="M 1.046875,0 V -10.5 H 3.15625 v 4.203125 h 4.1875 v 2.09375 H 3.15625 V 0 Z M 7.34375,-2.09375 v -2.109375 h 2.109375 v 2.109375 z m 0,-4.203125 V -8.40625 h 2.109375 v 2.109375 z M 9.453125,0 v -2.09375 h 2.09375 V 0 Z m 0,-8.40625 V -10.5 h 2.09375 v 2.09375 z m 0,0"
           id="path293" />
      </g>
    </g>
  </g>
  <g
     fill="#00ffff"
     fill-opacity="1"
     id="g299"
     transform="translate(-101.04688,-84.675775)">
    <g
       transform="translate(153.28501,192.24297)"
       id="g298">
      <g
         id="g297">
        <path
           d="m 1.046875,0 v -10.5 h 8.40625 v 2.09375 H 3.15625 v 4.203125 H 9.453125 V -2.09375 H 3.15625 V 0 Z m 8.40625,0 v -2.09375 h 2.09375 V 0 Z m 0,-4.203125 V -8.40625 h 2.09375 v 4.203125 z m 0,0"
           id="path296" />
      </g>
    </g>
  </g>
  <g
     fill="#00ffff"
     fill-opacity="1"
     id="g302"
     transform="translate(-101.04688,-84.675775)">
    <g
       transform="translate(165.885,192.24297)"
       id="g301">
      <g
         id="g300">
        <path
           d="m 3.15625,-8.40625 v 6.3125 H 1.046875 v -6.3125 z m 0,8.40625 v -2.09375 h 8.390625 V 0 Z m 0,-8.40625 V -10.5 h 8.390625 v 2.09375 z m 0,0"
           id="path299" />
      </g>
    </g>
  </g>
  <g
     fill="#ffffff"
     fill-opacity="1"
     id="g305"
     transform="translate(-101.04688,-84.675775)">
    <g
       transform="translate(141.62252,192.24297)"
       id="g304">
      <g
         id="g303">
        <path
           d="M 1.046875,0 V -10.5 H 3.15625 v 4.203125 h 4.1875 v 2.09375 H 3.15625 V 0 Z M 7.34375,-2.09375 v -2.109375 h 2.109375 v 2.109375 z m 0,-4.203125 V -8.40625 h 2.109375 v 2.109375 z M 9.453125,0 v -2.09375 h 2.09375 V 0 Z m 0,-8.40625 V -10.5 h 2.09375 v 2.09375 z m 0,0"
           id="path302" />
      </g>
    </g>
  </g>
  <g
     fill="#ffffff"
     fill-opacity="1"
     id="g308"
     transform="translate(-101.04688,-84.675775)">
    <g
       transform="translate(154.22251,192.24297)"
       id="g307">
      <g
         id="g306">
        <path
           d="m 1.046875,0 v -10.5 h 8.40625 v 2.09375 H 3.15625 v 4.203125 H 9.453125 V -2.09375 H 3.15625 V 0 Z m 8.40625,0 v -2.09375 h 2.09375 V 0 Z m 0,-4.203125 V -8.40625 h 2.09375 v 4.203125 z m 0,0"
           id="path305" />
      </g>
    </g>
  </g>
  <g
     fill="#ffffff"
     fill-opacity="1"
     id="g311"
     transform="translate(-101.04688,-84.675775)">
    <g
       transform="translate(166.8225,192.24297)"
       id="g310">
      <g
         id="g309">
        <path
           d="m 3.15625,-8.40625 v 6.3125 H 1.046875 v -6.3125 z m 0,8.40625 v -2.09375 h 8.390625 V 0 Z m 0,-8.40625 V -10.5 h 8.390625 v 2.09375 z m 0,0"
           id="path308" />
      </g>
    </g>
  </g>
  <g
     fill="#ff00ff"
     fill-opacity="1"
     id="g314"
     transform="translate(-101.04688,-84.675775)">
    <g
       transform="translate(165.75272,208.24979)"
       id="g313">
      <g
         id="g312">
        <path
           d="M 3.15625,0 V -2.09375 H 9.453125 V -4.203125 H 5.25 v -2.09375 h 6.296875 V 0 Z M 1.046875,-2.09375 v -6.3125 H 3.15625 v 6.3125 z M 3.15625,-8.40625 V -10.5 h 8.390625 v 2.09375 z m 0,0"
           id="path311" />
      </g>
    </g>
  </g>
  <g
     fill="#00ffff"
     fill-opacity="1"
     id="g317"
     transform="translate(-101.04688,-84.675775)">
    <g
       transform="translate(165.19022,208.24979)"
       id="g316">
      <g
         id="g315">
        <path
           d="M 3.15625,0 V -2.09375 H 9.453125 V -4.203125 H 5.25 v -2.09375 h 6.296875 V 0 Z M 1.046875,-2.09375 v -6.3125 H 3.15625 v 6.3125 z M 3.15625,-8.40625 V -10.5 h 8.390625 v 2.09375 z m 0,0"
           id="path314" />
      </g>
    </g>
  </g>
  <g
     fill="#7a52ff"
     fill-opacity="1"
     id="g320"
     transform="translate(-101.04688,-84.675775)">
    <g
       transform="translate(165.47147,208.24979)"
       id="g319">
      <g
         id="g318">
        <path
           d="M 3.15625,0 V -2.09375 H 9.453125 V -4.203125 H 5.25 v -2.09375 h 6.296875 V 0 Z M 1.046875,-2.09375 v -6.3125 H 3.15625 v 6.3125 z M 3.15625,-8.40625 V -10.5 h 8.390625 v 2.09375 z m 0,0"
           id="path317" />
      </g>
    </g>
  </g>
  <g
     fill="#ff00ff"
     fill-opacity="1"
     id="g323"
     transform="translate(-101.04688,-84.675775)">
    <g
       transform="translate(178.36209,208.24979)"
       id="g322">
      <g
         id="g321">
        <path
           d="M 1.046875,0 V -8.40625 H 3.15625 v 4.203125 H 9.453125 V -8.40625 h 2.09375 V 0 H 9.453125 V -2.09375 H 3.15625 V 0 Z M 3.15625,-8.40625 V -10.5 h 6.296875 v 2.09375 z m 0,0"
           id="path320" />
      </g>
    </g>
  </g>
  <g
     fill="#00ffff"
     fill-opacity="1"
     id="g326"
     transform="translate(-101.04688,-84.675775)">
    <g
       transform="translate(177.79959,208.24979)"
       id="g325">
      <g
         id="g324">
        <path
           d="M 1.046875,0 V -8.40625 H 3.15625 v 4.203125 H 9.453125 V -8.40625 h 2.09375 V 0 H 9.453125 V -2.09375 H 3.15625 V 0 Z M 3.15625,-8.40625 V -10.5 h 6.296875 v 2.09375 z m 0,0"
           id="path323" />
      </g>
    </g>
  </g>
  <g
     fill="#6052ff"
     fill-opacity="1"
     id="g329"
     transform="translate(-101.04688,-84.675775)">
    <g
       transform="translate(178.08084,208.24979)"
       id="g328">
      <g
         id="g327">
        <path
           d="M 1.046875,0 V -8.40625 H 3.15625 v 4.203125 H 9.453125 V -8.40625 h 2.09375 V 0 H 9.453125 V -2.09375 H 3.15625 V 0 Z M 3.15625,-8.40625 V -10.5 h 6.296875 v 2.09375 z m 0,0"
           id="path326" />
      </g>
    </g>
  </g>
  <g
     fill="#ff00ff"
     fill-opacity="1"
     id="g332"
     transform="translate(-101.04688,-84.675775)">
    <g
       transform="translate(190.97147,208.24979)"
       id="g331">
      <g
         id="g330">
        <path
           d="M 9.453125,0 V -6.296875 H 7.34375 V -8.40625 H 9.453125 V -10.5 h 2.09375 V 0 Z M 1.046875,0 V -10.5 H 3.15625 v 2.09375 H 5.25 v 2.109375 H 3.15625 V 0 Z M 5.25,-4.203125 v -2.09375 h 2.09375 v 2.09375 z m 0,0"
           id="path329" />
      </g>
    </g>
  </g>
  <g
     fill="#00ffff"
     fill-opacity="1"
     id="g335"
     transform="translate(-101.04688,-84.675775)">
    <g
       transform="translate(190.40897,208.24979)"
       id="g334">
      <g
         id="g333">
        <path
           d="M 9.453125,0 V -6.296875 H 7.34375 V -8.40625 H 9.453125 V -10.5 h 2.09375 V 0 Z M 1.046875,0 V -10.5 H 3.15625 v 2.09375 H 5.25 v 2.109375 H 3.15625 V 0 Z M 5.25,-4.203125 v -2.09375 h 2.09375 v 2.09375 z m 0,0"
           id="path332" />
      </g>
    </g>
  </g>
  <g
     fill="#525eff"
     fill-opacity="1"
     id="g338"
     transform="translate(-101.04688,-84.675775)">
    <g
       transform="translate(190.69022,208.24979)"
       id="g337">
      <g
         id="g336">
        <path
           d="M 9.453125,0 V -6.296875 H 7.34375 V -8.40625 H 9.453125 V -10.5 h 2.09375 V 0 Z M 1.046875,0 V -10.5 H 3.15625 v 2.09375 H 5.25 v 2.109375 H 3.15625 V 0 Z M 5.25,-4.203125 v -2.09375 h 2.09375 v 2.09375 z m 0,0"
           id="path335" />
      </g>
    </g>
  </g>
  <g
     fill="#ff00ff"
     fill-opacity="1"
     id="g341"
     transform="translate(-101.04688,-84.675775)">
    <g
       transform="translate(203.58084,208.24979)"
       id="g340">
      <g
         id="g339">
        <path
           d="m 1.046875,0 v -10.5 h 10.5 v 2.09375 H 3.15625 v 2.109375 h 6.296875 v 2.09375 H 3.15625 v 2.109375 h 8.390625 V 0 Z m 0,0"
           id="path338" />
      </g>
    </g>
  </g>
  <g
     fill="#00ffff"
     fill-opacity="1"
     id="g344"
     transform="translate(-101.04688,-84.675775)">
    <g
       transform="translate(203.01834,208.24979)"
       id="g343">
      <g
         id="g342">
        <path
           d="m 1.046875,0 v -10.5 h 10.5 v 2.09375 H 3.15625 v 2.109375 h 6.296875 v 2.09375 H 3.15625 v 2.109375 h 8.390625 V 0 Z m 0,0"
           id="path341" />
      </g>
    </g>
  </g>
  <g
     fill="#5278ff"
     fill-opacity="1"
     id="g347"
     transform="translate(-101.04688,-84.675775)">
    <g
       transform="translate(203.29959,208.24979)"
       id="g346">
      <g
         id="g345">
        <path
           d="m 1.046875,0 v -10.5 h 10.5 v 2.09375 H 3.15625 v 2.109375 h 6.296875 v 2.09375 H 3.15625 v 2.109375 h 8.390625 V 0 Z m 0,0"
           id="path344" />
      </g>
    </g>
  </g>
  <g
     fill="#ff00ff"
     fill-opacity="1"
     id="g350"
     transform="translate(-101.04688,-84.675775)">
    <g
       transform="translate(216.19021,208.24979)"
       id="g349">
      <g
         id="g348">
        <path
           d="m 3.15625,-8.40625 v 2.109375 H 1.046875 V -8.40625 Z M 1.046875,0 v -2.09375 h 8.40625 V 0 Z M 3.15625,-4.203125 v -2.09375 h 6.296875 v 2.09375 z m 0,-4.203125 V -10.5 h 8.390625 v 2.09375 z m 6.296875,6.3125 v -2.109375 h 2.09375 v 2.109375 z m 0,0"
           id="path347" />
      </g>
    </g>
  </g>
  <g
     fill="#00ffff"
     fill-opacity="1"
     id="g353"
     transform="translate(-101.04688,-84.675775)">
    <g
       transform="translate(215.62771,208.24979)"
       id="g352">
      <g
         id="g351">
        <path
           d="m 3.15625,-8.40625 v 2.109375 H 1.046875 V -8.40625 Z M 1.046875,0 v -2.09375 h 8.40625 V 0 Z M 3.15625,-4.203125 v -2.09375 h 6.296875 v 2.09375 z m 0,-4.203125 V -10.5 h 8.390625 v 2.09375 z m 6.296875,6.3125 v -2.109375 h 2.09375 v 2.109375 z m 0,0"
           id="path350" />
      </g>
    </g>
  </g>
  <g
     fill="#528dff"
     fill-opacity="1"
     id="g356"
     transform="translate(-101.04688,-84.675775)">
    <g
       transform="translate(215.90897,208.24979)"
       id="g355">
      <g
         id="g354">
        <path
           d="m 3.15625,-8.40625 v 2.109375 H 1.046875 V -8.40625 Z M 1.046875,0 v -2.09375 h 8.40625 V 0 Z M 3.15625,-4.203125 v -2.09375 h 6.296875 v 2.09375 z m 0,-4.203125 V -10.5 h 8.390625 v 2.09375 z m 6.296875,6.3125 v -2.109375 h 2.09375 v 2.109375 z m 0,0"
           id="path353" />
      </g>
    </g>
  </g>
</svg>
