<?xml version="1.0" encoding="UTF-8" standalone="no"?>
<svg
   width="114.67358"
   zoomAndPan="magnify"
   viewBox="0 0 86.005186 26.506816"
   height="35.342422"
   preserveAspectRatio="xMidYMid"
   version="1.0"
   id="svg356"
   xmlns="http://www.w3.org/2000/svg"
   xmlns:svg="http://www.w3.org/2000/svg">
  <defs
     id="defs46" />
  <g
     fill="#ff00ff"
     fill-opacity="1"
     id="g287"
     transform="translate(-141.7319,-181.74297)">
    <g
       transform="translate(142.56002,192.24297)"
       id="g286">
      <g
         id="g285">
        <path
           d="M 1.046875,0 V -10.5 H 3.15625 v 4.203125 h 4.1875 v 2.09375 H 3.15625 V 0 Z M 7.34375,-2.09375 v -2.109375 h 2.109375 v 2.109375 z m 0,-4.203125 V -8.40625 h 2.109375 v 2.109375 z M 9.453125,0 v -2.09375 h 2.09375 V 0 Z m 0,-8.40625 V -10.5 h 2.09375 v 2.09375 z m 0,0"
           id="path284" />
      </g>
    </g>
  </g>
  <g
     fill="#ff00ff"
     fill-opacity="1"
     id="g290"
     transform="translate(-141.7319,-181.74297)">
    <g
       transform="translate(155.16001,192.24297)"
       id="g289">
      <g
         id="g288">
        <path
           d="m 1.046875,0 v -10.5 h 8.40625 v 2.09375 H 3.15625 v 4.203125 H 9.453125 V -2.09375 H 3.15625 V 0 Z m 8.40625,0 v -2.09375 h 2.09375 V 0 Z m 0,-4.203125 V -8.40625 h 2.09375 v 4.203125 z m 0,0"
           id="path287" />
      </g>
    </g>
  </g>
  <g
     fill="#ff00ff"
     fill-opacity="1"
     id="g293"
     transform="translate(-141.7319,-181.74297)">
    <g
       transform="translate(167.76,192.24297)"
       id="g292">
      <g
         id="g291">
        <path
           d="m 3.15625,-8.40625 v 6.3125 H 1.046875 v -6.3125 z m 0,8.40625 v -2.09375 h 8.390625 V 0 Z m 0,-8.40625 V -10.5 h 8.390625 v 2.09375 z m 0,0"
           id="path290" />
      </g>
    </g>
  </g>
  <g
     fill="#00ffff"
     fill-opacity="1"
     id="g296"
     transform="translate(-141.7319,-181.74297)">
    <g
       transform="translate(140.68502,192.24297)"
       id="g295">
      <g
         id="g294">
        <path
           d="M 1.046875,0 V -10.5 H 3.15625 v 4.203125 h 4.1875 v 2.09375 H 3.15625 V 0 Z M 7.34375,-2.09375 v -2.109375 h 2.109375 v 2.109375 z m 0,-4.203125 V -8.40625 h 2.109375 v 2.109375 z M 9.453125,0 v -2.09375 h 2.09375 V 0 Z m 0,-8.40625 V -10.5 h 2.09375 v 2.09375 z m 0,0"
           id="path293" />
      </g>
    </g>
  </g>
  <g
     fill="#00ffff"
     fill-opacity="1"
     id="g299"
     transform="translate(-141.7319,-181.74297)">
    <g
       transform="translate(153.28501,192.24297)"
       id="g298">
      <g
         id="g297">
        <path
           d="m 1.046875,0 v -10.5 h 8.40625 v 2.09375 H 3.15625 v 4.203125 H 9.453125 V -2.09375 H 3.15625 V 0 Z m 8.40625,0 v -2.09375 h 2.09375 V 0 Z m 0,-4.203125 V -8.40625 h 2.09375 v 4.203125 z m 0,0"
           id="path296" />
      </g>
    </g>
  </g>
  <g
     fill="#00ffff"
     fill-opacity="1"
     id="g302"
     transform="translate(-141.7319,-181.74297)">
    <g
       transform="translate(165.885,192.24297)"
       id="g301">
      <g
         id="g300">
        <path
           d="m 3.15625,-8.40625 v 6.3125 H 1.046875 v -6.3125 z m 0,8.40625 v -2.09375 h 8.390625 V 0 Z m 0,-8.40625 V -10.5 h 8.390625 v 2.09375 z m 0,0"
           id="path299" />
      </g>
    </g>
  </g>
  <g
     fill="#ffffff"
     fill-opacity="1"
     id="g305"
     transform="translate(-141.7319,-181.74297)">
    <g
       transform="translate(141.62252,192.24297)"
       id="g304">
      <g
         id="g303">
        <path
           d="M 1.046875,0 V -10.5 H 3.15625 v 4.203125 h 4.1875 v 2.09375 H 3.15625 V 0 Z M 7.34375,-2.09375 v -2.109375 h 2.109375 v 2.109375 z m 0,-4.203125 V -8.40625 h 2.109375 v 2.109375 z M 9.453125,0 v -2.09375 h 2.09375 V 0 Z m 0,-8.40625 V -10.5 h 2.09375 v 2.09375 z m 0,0"
           id="path302" />
      </g>
    </g>
  </g>
  <g
     fill="#ffffff"
     fill-opacity="1"
     id="g308"
     transform="translate(-141.7319,-181.74297)">
    <g
       transform="translate(154.22251,192.24297)"
       id="g307">
      <g
         id="g306">
        <path
           d="m 1.046875,0 v -10.5 h 8.40625 v 2.09375 H 3.15625 v 4.203125 H 9.453125 V -2.09375 H 3.15625 V 0 Z m 8.40625,0 v -2.09375 h 2.09375 V 0 Z m 0,-4.203125 V -8.40625 h 2.09375 v 4.203125 z m 0,0"
           id="path305" />
      </g>
    </g>
  </g>
  <g
     fill="#ffffff"
     fill-opacity="1"
     id="g311"
     transform="translate(-141.7319,-181.74297)">
    <g
       transform="translate(166.8225,192.24297)"
       id="g310">
      <g
         id="g309">
        <path
           d="m 3.15625,-8.40625 v 6.3125 H 1.046875 v -6.3125 z m 0,8.40625 v -2.09375 h 8.390625 V 0 Z m 0,-8.40625 V -10.5 h 8.390625 v 2.09375 z m 0,0"
           id="path308" />
      </g>
    </g>
  </g>
  <g
     fill="#ff00ff"
     fill-opacity="1"
     id="g314"
     transform="translate(-141.7319,-181.74297)">
    <g
       transform="translate(165.75272,208.24979)"
       id="g313">
      <g
         id="g312">
        <path
           d="M 3.15625,0 V -2.09375 H 9.453125 V -4.203125 H 5.25 v -2.09375 h 6.296875 V 0 Z M 1.046875,-2.09375 v -6.3125 H 3.15625 v 6.3125 z M 3.15625,-8.40625 V -10.5 h 8.390625 v 2.09375 z m 0,0"
           id="path311" />
      </g>
    </g>
  </g>
  <g
     fill="#00ffff"
     fill-opacity="1"
     id="g317"
     transform="translate(-141.7319,-181.74297)">
    <g
       transform="translate(165.19022,208.24979)"
       id="g316">
      <g
         id="g315">
        <path
           d="M 3.15625,0 V -2.09375 H 9.453125 V -4.203125 H 5.25 v -2.09375 h 6.296875 V 0 Z M 1.046875,-2.09375 v -6.3125 H 3.15625 v 6.3125 z M 3.15625,-8.40625 V -10.5 h 8.390625 v 2.09375 z m 0,0"
           id="path314" />
      </g>
    </g>
  </g>
  <g
     fill="#7a52ff"
     fill-opacity="1"
     id="g320"
     transform="translate(-141.7319,-181.74297)">
    <g
       transform="translate(165.47147,208.24979)"
       id="g319">
      <g
         id="g318">
        <path
           d="M 3.15625,0 V -2.09375 H 9.453125 V -4.203125 H 5.25 v -2.09375 h 6.296875 V 0 Z M 1.046875,-2.09375 v -6.3125 H 3.15625 v 6.3125 z M 3.15625,-8.40625 V -10.5 h 8.390625 v 2.09375 z m 0,0"
           id="path317" />
      </g>
    </g>
  </g>
  <g
     fill="#ff00ff"
     fill-opacity="1"
     id="g323"
     transform="translate(-141.7319,-181.74297)">
    <g
       transform="translate(178.36209,208.24979)"
       id="g322">
      <g
         id="g321">
        <path
           d="M 1.046875,0 V -8.40625 H 3.15625 v 4.203125 H 9.453125 V -8.40625 h 2.09375 V 0 H 9.453125 V -2.09375 H 3.15625 V 0 Z M 3.15625,-8.40625 V -10.5 h 6.296875 v 2.09375 z m 0,0"
           id="path320" />
      </g>
    </g>
  </g>
  <g
     fill="#00ffff"
     fill-opacity="1"
     id="g326"
     transform="translate(-141.7319,-181.74297)">
    <g
       transform="translate(177.79959,208.24979)"
       id="g325">
      <g
         id="g324">
        <path
           d="M 1.046875,0 V -8.40625 H 3.15625 v 4.203125 H 9.453125 V -8.40625 h 2.09375 V 0 H 9.453125 V -2.09375 H 3.15625 V 0 Z M 3.15625,-8.40625 V -10.5 h 6.296875 v 2.09375 z m 0,0"
           id="path323" />
      </g>
    </g>
  </g>
  <g
     fill="#6052ff"
     fill-opacity="1"
     id="g329"
     transform="translate(-141.7319,-181.74297)">
    <g
       transform="translate(178.08084,208.24979)"
       id="g328">
      <g
         id="g327">
        <path
           d="M 1.046875,0 V -8.40625 H 3.15625 v 4.203125 H 9.453125 V -8.40625 h 2.09375 V 0 H 9.453125 V -2.09375 H 3.15625 V 0 Z M 3.15625,-8.40625 V -10.5 h 6.296875 v 2.09375 z m 0,0"
           id="path326" />
      </g>
    </g>
  </g>
  <g
     fill="#ff00ff"
     fill-opacity="1"
     id="g332"
     transform="translate(-141.7319,-181.74297)">
    <g
       transform="translate(190.97147,208.24979)"
       id="g331">
      <g
         id="g330">
        <path
           d="M 9.453125,0 V -6.296875 H 7.34375 V -8.40625 H 9.453125 V -10.5 h 2.09375 V 0 Z M 1.046875,0 V -10.5 H 3.15625 v 2.09375 H 5.25 v 2.109375 H 3.15625 V 0 Z M 5.25,-4.203125 v -2.09375 h 2.09375 v 2.09375 z m 0,0"
           id="path329" />
      </g>
    </g>
  </g>
  <g
     fill="#00ffff"
     fill-opacity="1"
     id="g335"
     transform="translate(-141.7319,-181.74297)">
    <g
       transform="translate(190.40897,208.24979)"
       id="g334">
      <g
         id="g333">
        <path
           d="M 9.453125,0 V -6.296875 H 7.34375 V -8.40625 H 9.453125 V -10.5 h 2.09375 V 0 Z M 1.046875,0 V -10.5 H 3.15625 v 2.09375 H 5.25 v 2.109375 H 3.15625 V 0 Z M 5.25,-4.203125 v -2.09375 h 2.09375 v 2.09375 z m 0,0"
           id="path332" />
      </g>
    </g>
  </g>
  <g
     fill="#525eff"
     fill-opacity="1"
     id="g338"
     transform="translate(-141.7319,-181.74297)">
    <g
       transform="translate(190.69022,208.24979)"
       id="g337">
      <g
         id="g336">
        <path
           d="M 9.453125,0 V -6.296875 H 7.34375 V -8.40625 H 9.453125 V -10.5 h 2.09375 V 0 Z M 1.046875,0 V -10.5 H 3.15625 v 2.09375 H 5.25 v 2.109375 H 3.15625 V 0 Z M 5.25,-4.203125 v -2.09375 h 2.09375 v 2.09375 z m 0,0"
           id="path335" />
      </g>
    </g>
  </g>
  <g
     fill="#ff00ff"
     fill-opacity="1"
     id="g341"
     transform="translate(-141.7319,-181.74297)">
    <g
       transform="translate(203.58084,208.24979)"
       id="g340">
      <g
         id="g339">
        <path
           d="m 1.046875,0 v -10.5 h 10.5 v 2.09375 H 3.15625 v 2.109375 h 6.296875 v 2.09375 H 3.15625 v 2.109375 h 8.390625 V 0 Z m 0,0"
           id="path338" />
      </g>
    </g>
  </g>
  <g
     fill="#00ffff"
     fill-opacity="1"
     id="g344"
     transform="translate(-141.7319,-181.74297)">
    <g
       transform="translate(203.01834,208.24979)"
       id="g343">
      <g
         id="g342">
        <path
           d="m 1.046875,0 v -10.5 h 10.5 v 2.09375 H 3.15625 v 2.109375 h 6.296875 v 2.09375 H 3.15625 v 2.109375 h 8.390625 V 0 Z m 0,0"
           id="path341" />
      </g>
    </g>
  </g>
  <g
     fill="#5278ff"
     fill-opacity="1"
     id="g347"
     transform="translate(-141.7319,-181.74297)">
    <g
       transform="translate(203.29959,208.24979)"
       id="g346">
      <g
         id="g345">
        <path
           d="m 1.046875,0 v -10.5 h 10.5 v 2.09375 H 3.15625 v 2.109375 h 6.296875 v 2.09375 H 3.15625 v 2.109375 h 8.390625 V 0 Z m 0,0"
           id="path344" />
      </g>
    </g>
  </g>
  <g
     fill="#ff00ff"
     fill-opacity="1"
     id="g350"
     transform="translate(-141.7319,-181.74297)">
    <g
       transform="translate(216.19021,208.24979)"
       id="g349">
      <g
         id="g348">
        <path
           d="m 3.15625,-8.40625 v 2.109375 H 1.046875 V -8.40625 Z M 1.046875,0 v -2.09375 h 8.40625 V 0 Z M 3.15625,-4.203125 v -2.09375 h 6.296875 v 2.09375 z m 0,-4.203125 V -10.5 h 8.390625 v 2.09375 z m 6.296875,6.3125 v -2.109375 h 2.09375 v 2.109375 z m 0,0"
           id="path347" />
      </g>
    </g>
  </g>
  <g
     fill="#00ffff"
     fill-opacity="1"
     id="g353"
     transform="translate(-141.7319,-181.74297)">
    <g
       transform="translate(215.62771,208.24979)"
       id="g352">
      <g
         id="g351">
        <path
           d="m 3.15625,-8.40625 v 2.109375 H 1.046875 V -8.40625 Z M 1.046875,0 v -2.09375 h 8.40625 V 0 Z M 3.15625,-4.203125 v -2.09375 h 6.296875 v 2.09375 z m 0,-4.203125 V -10.5 h 8.390625 v 2.09375 z m 6.296875,6.3125 v -2.109375 h 2.09375 v 2.109375 z m 0,0"
           id="path350" />
      </g>
    </g>
  </g>
  <g
     fill="#528dff"
     fill-opacity="1"
     id="g356"
     transform="translate(-141.7319,-181.74297)">
    <g
       transform="translate(215.90897,208.24979)"
       id="g355">
      <g
         id="g354">
        <path
           d="m 3.15625,-8.40625 v 2.109375 H 1.046875 V -8.40625 Z M 1.046875,0 v -2.09375 h 8.40625 V 0 Z M 3.15625,-4.203125 v -2.09375 h 6.296875 v 2.09375 z m 0,-4.203125 V -10.5 h 8.390625 v 2.09375 z m 6.296875,6.3125 v -2.109375 h 2.09375 v 2.109375 z m 0,0"
           id="path353" />
      </g>
    </g>
  </g>
</svg>
